# xmcd
#
# Track frame offsets:
#   150
#   18657
#   30536
#   46529
#   62080
#   74600
#   96943
#   113973
#   132128
#   148182
#   169186
#   188840
#   197170
#   213075
#   232130
#   247734
#   262364
#   281793
#   298598
#   324703
#
# Disc length: 4669 seconds
#
# Revision: 0
# Processed by: cddbd v1.5.1PL0 Copyright (c) Steve Scherf et al.
# Submitted via: uFREEDB ActiveX Control 1.5
#
DISCID=3b123b14
DTITLE=Linkin Park - x
DYEAR=2000
DGENRE=Alternative
TTITLE0=Dirt Off Your Shoulder - Lying From You
TTITLE1=Big Pimpin - Papercut
TTITLE2=Jigga What - Faint
TTITLE3=Numb - Encore
TTITLE4=Izzo - In The End
TTITLE5=Points Of Authority - 99 Problems - One Step Close
TTITLE6=Points of Authority [Reanimation]
TTITLE7=In The End [Reanimation]
TTITLE8=Forgotten [Reanimation]
TTITLE9=Pushing Me Away [Reanimation]
TTITLE10=A Place For My Head [Reanimation]
TTITLE11=Ecutioner Style [Reanimation]
TTITLE12=High Voltage [Reanimation]
TTITLE13=With You [Reanimation]
TTITLE14=Parpercut [Reanimation]
TTITLE15=Runaway [Reanimation]
TTITLE16=My December [Reanimation]
TTITLE17=By Myself [Reanimation]
TTITLE18=One Step Closer [Reanimation]
TTITLE19=Crawling [Reanimation]
EXTD=
EXTT0=
EXTT1=
EXTT2=
EXTT3=
EXTT4=
EXTT5=
EXTT6=
EXTT7=
EXTT8=
EXTT9=
EXTT10=
EXTT11=
EXTT12=
EXTT13=
EXTT14=
EXTT15=
EXTT16=
EXTT17=
EXTT18=
EXTT19=
PLAYORDER=
